<?xml version="1.0" standalone="no"?><!DOCTYPE svg PUBLIC "-//W3C//DTD SVG 1.1//EN" "http://www.w3.org/Graphics/SVG/1.1/DTD/svg11.dtd"><svg t="1766400530020" class="icon" viewBox="0 0 1280 1024" version="1.1" xmlns="http://www.w3.org/2000/svg" p-id="9804" xmlns:xlink="http://www.w3.org/1999/xlink" width="250" height="200"><path d="M640.299 658.688l344.362-142.55a240.64 240.64 0 0 1 13.099-5.29l0.256 13.867v320.554a9.557 9.557 0 0 1-4.864 8.32L712.96 999.765c-42.07 20.139-95.147 23.979-140.373 0-0.256-0.128-0.427 0.128-0.64 0l-324.395-163.37a9.557 9.557 0 0 1-4.907-8.32l-0.085-346.496 397.739 177.066z m2.048-632.32L1264 324.053l-123.093 70.528v446.464h-56.875V422.741L644.053 612.78l-570.581-262.4c-7.893-3.84-22.827-13.398-44.885-28.63 22.485-14.506 37.546-23.594 45.269-27.178l568.49-268.203z" fill="#13227a" p-id="9805"></path></svg>